<?xml version="1.0" encoding="utf-8"?>
<!-- Generator: Adobe Illustrator 21.0.0, SVG Export Plug-In . SVG Version: 6.00 Build 0)  -->
<svg version="1.1" id="Layer_1" xmlns="http://www.w3.org/2000/svg" xmlns:xlink="http://www.w3.org/1999/xlink" x="0px" y="0px"
	 viewBox="0 0 441.8 109.5" style="enable-background:new 0 0 441.8 109.5;" xml:space="preserve">
<style type="text/css">
	.st0{fill:#E40000;}
</style>
<title>Bharti Airtel</title>
<path class="st0" d="M32.9,109.5c4.3-0.1,8.6-1,12.7-2.6c7.2-2.5,12.9-5.9,18.4-9.3l1.5-1c6.1-3.7,12-7.9,17.4-12.6
	c11.5-8.9,20.3-21,25.2-34.8c1.8-5.3,4.4-15.6,1.2-25.3c-2.3-7.1-7-13.2-13.2-17.3C95.4,6.2,87.4,0,72.1,0C58.3,0,43,5.1,26.9,15.3
	l-0.5,0.4l-1.5,1c-3.7,2.3-7.3,5-10.7,7.8C7.4,30.8-0.4,41.4,0,50.5c0.2,3.7,2,7.1,5,9.3c2.9,2.2,6.6,3.3,10.2,3.1
	c8.3,0,17.4-4.4,23.6-8l1.2-0.7l3.2-2l1.1-0.7c8.8-5.7,17.9-11.6,28.2-15c2.3-0.8,4.7-1.2,7.2-1.3c1,0,2.1,0.1,3.1,0.4
	c2.9,0.6,5.4,2.5,6.8,5.1c2.4,4.7,1.8,12-1.5,18.8c-5.5,10.5-13.2,19.7-22.6,27C61,90.3,56,93.7,50.8,96.6l-0.4,0.1
	c-2.2,1.3-4.4,2.3-6.8,3.2l-0.4,0.1l-1.9,0.7c-10.3,2.6-4-6.1-4-6.1c2.2-2.5,4.5-4.8,7-6.9c1.5-1.2,2.9-2.6,4.3-3.9l0.3-0.3
	c1.8-1.8,4.3-4.2,4.2-7.6c-0.2-4.5-5-7.3-9.5-7.5h-0.3c-4.4,0-8.4,2.4-11.1,4.5c-2.9,2.2-5.4,4.9-7.4,8c-2.8,4.2-8.5,14.9-2.9,23.4
	c2.3,3.4,6.1,5.2,11.2,5.2L32.9,109.5z"/>
<g>
	<g>
		<path class="st0" d="M239.5,7c2.1,2.1,3.3,5.1,3.2,8.1c-0.2,6.5-5.6,11.5-12.1,11.3c-6.2-0.2-11.1-5.2-11.3-11.4
			c0.2-6.5,5.7-11.6,12.2-11.4C234.5,3.8,237.4,5,239.5,7L239.5,7z M221.7,104.4h18.3v-72l-18.3,2.9V104.4L221.7,104.4z M207.9,56
			v38.4c-8.4,7.7-19.6,11.8-31,11.3c-15.9,0-27.3-11.7-27.3-25.1c0.3-14.2,11.2-23.2,28.7-23.2h11v-3.7c0-6.4-2.8-9.4-9.5-9.6
			c-5.5-0.2-11.5,1.5-17.3,4l-2.8,1.3l-4.9-10.8l2.2-1.2c7.6-4,16.1-6.2,24.8-6.4c12.7,0,26.3,6.2,26.3,24.8L207.9,56z M189.3,69.6
			h-7.5c-9.2,0-12.6,6.1-12.8,11.5c-0.1,6.6,3.2,12.1,10.6,12.1c3.3,0.1,6.7-0.7,9.6-2.3L189.3,69.6L189.3,69.6z M395.3,86.9
			l5.1,10.5c-4.3,2.8-8.9,5.1-13.8,6.6c-4.2,1.3-8.6,1.9-13,1.9c-8,0-14.9-2.2-19.9-6.3c-8.3-7.7-12.9-18.6-12.4-29.9
			c0.2-18.4,8.5-38,30.2-38c19.3,0,28.2,11.7,28.5,37.2v1.8h-39.6c-0.4,7.7,1.1,14.9,4.4,18.4c2.2,2.4,5.6,4,10.7,4
			C382.5,93,389.4,90.9,395.3,86.9L395.3,86.9z M361,59.3h19.9c0-5.3-1.2-14.1-9.3-14.1C364.2,45.2,361.3,52.4,361,59.3L361,59.3z
			 M254.9,45.3v59.1h18.7V48.8c2.5-2.3,7.7-4.4,12.6-4.6c2.6-0.1,5.1,0.1,7.6,0.7l5.1-11.4c-2-1-6.8-2.2-12.3-2.2
			C278.5,31.3,266.1,33.7,254.9,45.3L254.9,45.3z M439.1,93c-7.7-0.5-9.3-3.9-9.3-9.4V12.5l-18.4,3.1v67c0,15.9,8.8,22.6,23.4,22.6
			c2.4-0.1,4.7-0.3,7.1-0.7V93.1L439.1,93L439.1,93z M322.7,12.6l-18.8,3v67.3c0,15.1,8.9,22.2,24,22.2c2.3,0,4.7-0.2,7-0.7V93.2
			l-2.7-0.1c-7.9-0.3-9.5-4.5-9.5-9.5V45.7h12.2V32.4h-12.2V12.6z"/>
	</g>
</g>
</svg>
