<svg id="Layer_1" data-name="Layer 1" xmlns="http://www.w3.org/2000/svg" viewBox="0 0 404.3 413.92"><title>BSNL logo - Brandlogos.net</title><path id="path8" d="M324.85,501.76l.5-.5c.6-.3,1.1-.5,1.6-.8a6.42,6.42,0,0,0,1.3-1,.91.91,0,0,0,.7-.3,1.58,1.58,0,0,0,.5-.8,5.5,5.5,0,0,1,.9-.7,5.49,5.49,0,0,0,.9-.7l.4-.1c.1-.2.1-.3.2-.4s.2-.2.3-.2l.5-.5.9-.6c.5-.3,1-.6,1.4-.9a2.77,2.77,0,0,1,.7-.4.37.37,0,0,1,.3.1.31.31,0,0,1,.1.2c0,.1-.1.1-.1.3a.52.52,0,0,0-.2.4.31.31,0,0,0,.1.2c0,.1.1.2.1.3s-.1.3-.4.6a4.35,4.35,0,0,1-.6.7l-.6.8a2.36,2.36,0,0,0-1,1,11.15,11.15,0,0,1-.9,1l-.2.2-.1.1-.4.4c-.1.1-.2.3-.3.3l-.5.3a.92.92,0,0,0-.6.4,3.39,3.39,0,0,0-.3.8,4.23,4.23,0,0,1-.7.5,10.54,10.54,0,0,1-1.3.8h-.2l-.1.2-.6.1a1,1,0,0,1-.5.6.86.86,0,0,1-.6.3c-.5.3-1.1.6-1.5.8s-.9.4-1.4.6l-.7.1a3.55,3.55,0,0,1-.9.4,2.92,2.92,0,0,1-.9.2l-.8-.1h-.6a7.72,7.72,0,0,1-1.5-.2,4.71,4.71,0,0,1-1.5-.6l-.4-.5a3.31,3.31,0,0,1-2.1-1.9,14.09,14.09,0,0,1-.5-4.9,3.92,3.92,0,0,1-1,.8,4.57,4.57,0,0,1-1.4.5l-.4.6a6.58,6.58,0,0,1-1.2.6,2.54,2.54,0,0,1-.7.2l-.4-.3a.37.37,0,0,0,.1-.3v-.2l-.1-.1c0-.1-.1-.1-.2-.3l.1-.4a1.24,1.24,0,0,0,.2-.3,30.08,30.08,0,0,1,2.5-2.6l.5-.6.2-.3a.22.22,0,0,1,.2-.2c.1-.1.2-.1.4-.2l.4-.1c.2,0,.3-.1.5-.2a3.81,3.81,0,0,0,.5-.6,1.79,1.79,0,0,1,.7-.5,3,3,0,0,1,.8-.4,4.88,4.88,0,0,0,.7-.3,1.63,1.63,0,0,0,.3-.6c.6-.3,1.1-.6,1.5-.8a2.36,2.36,0,0,0,.9-.8l.3-.5a19.08,19.08,0,0,1,2.1-1.5c.7-.5,1.5-1,2.4-1.6l.5-.2a4.35,4.35,0,0,1,.6-.7,1.93,1.93,0,0,1,.9-.5c.2-.1.7-.3,1.4-.7a4.56,4.56,0,0,1,2.2-.6h.1c.2-.1.3-.1.4-.2h.3c.2,0,.3,0,.4.1a1.63,1.63,0,0,1,.3.6v.8a1.76,1.76,0,0,0,.1.6v.3a5.6,5.6,0,0,1-1,1.5,10,10,0,0,1-1.5,1.3l-.6.3-.6.6h-.7l-.7.9c-.5.4-1,.7-1.4,1s-.8.7-1.2,1l-.9.4-.4.6a3.74,3.74,0,0,0-1.9,1.5,4,4,0,0,0-.8,2,1.09,1.09,0,0,0,.1.5c0,.2.1.3.1.6l-.1.6.2.4a2.25,2.25,0,0,0,1,1.6,4.2,4.2,0,0,0,2.2.5,2.64,2.64,0,0,0,.7-.1c.4,0,.6-.1.8-.1l.5-.5h.7Zm-28.9-2.2-.1-.6-.8.6-.4.3-.6.5c-.3.2-.6.3-.7.4a1.38,1.38,0,0,0-.4.3l-.3.3-.6.3a1,1,0,0,1-.4.5,2.22,2.22,0,0,1-.9.1c-.2,0-.3,0-.4-.1a1,1,0,0,1-.1-.4.85.85,0,0,1,.2-.6c.1-.1.3-.2.5-.4v-.6l.6-.6c.2-.2.4-.5.7-.8l.5-.6.4-.2a1.79,1.79,0,0,1,.5-.7,5.58,5.58,0,0,1,.8-.5l.2-.4.8-.5.7-.6a.35.35,0,0,0,.1-.2c0-.1.1-.2.1-.3v-.2l.3-.6-.1-.3.2-.5a14.58,14.58,0,0,1,.4-1.7c.2-.5.4-.9.6-1.3l.4-.2-.1-.4a10.71,10.71,0,0,1,1.5-2.2,24.94,24.94,0,0,1,2.8-2.7h.3l.2-.3.3-.1.2-.4a6,6,0,0,1,1.5-.9,4.15,4.15,0,0,1,1.6-.3h.5a.37.37,0,0,1,.3.1l.3.1,1.2.4.4.5.2.1a6.89,6.89,0,0,0,.3.8,1.09,1.09,0,0,1,.1.5v.5l.2.4-.1.7-.2.8-.4.6-.1.7a2.1,2.1,0,0,1-.6.8,7.3,7.3,0,0,1-.9,1l-.2.4a14.05,14.05,0,0,1-1.7,1.8,20.84,20.84,0,0,1-2.5,2.1l-.5.2-.2.3-1,.7-.4.5-.2.2v.2a1.27,1.27,0,0,0,.1.6,6.89,6.89,0,0,1,.3.8l.3.4.2.6a7,7,0,0,0,1.4.8,3.45,3.45,0,0,0,1.3.3,1.49,1.49,0,0,0,.9-.2c.3-.1.7-.3,1.2-.5l.4-.1,1-.7h.8l.2-.5a6,6,0,0,1,.7-.6c.4-.4.8-.7,1.1-1l.5-.2.3-.5a5.58,5.58,0,0,1,.8-.5l.9-.3a1.7,1.7,0,0,1,.6-.6,2,2,0,0,1,.8-.4l.5-.5a.9.9,0,0,1,.5-.1,1,1,0,0,0,.3-.1.75.75,0,0,1,.5.1c.1.1.1.2.1.4a.76.76,0,0,1-.1.4c-.1.1-.1.3-.2.4l-.1.4a3.28,3.28,0,0,1-.6.8,12,12,0,0,1-1.1,1v.2a.76.76,0,0,1-.2.5,1,1,0,0,1-.7.2A6.7,6.7,0,0,1,312,500a3.81,3.81,0,0,0-.6.5l-.5.4-.3.1c-.2.1-.3.3-.5.4s-.4.4-.7.6l-.3.4-.7.5a8.26,8.26,0,0,1-2.2,1.4,5.83,5.83,0,0,1-2,.5h-.3l-.7-.1-.3.2h-.8a9,9,0,0,1-1.8-.2,3,3,0,0,1-1.1-.7l-.4.1-.7-.6-.4-.7-.3-.3a4.23,4.23,0,0,0-.5-.7,6.89,6.89,0,0,1-.3-.8Zm7.9-9,.5-.3a1.33,1.33,0,0,1,.3-.7,1.64,1.64,0,0,0,.2-1,2,2,0,0,0-.1-.5.35.35,0,0,0-.2-.1h-.1l-.5.3-1.1,1-1.1,1.1-1,1.4a4.88,4.88,0,0,0-.3.7,1.27,1.27,0,0,0-.1.6v.1h.3c.1,0,.1-.1.3-.1h.7c.1,0,.2-.1.3-.2l.3-.5.5-.5Zm-37.5,4.4.4-.4c.6-.7,1.5-1.7,2.6-2.9,3.1-3.6,5-5.5,5.6-5.7l.6-.2.6-.4.7-.2.4.1.4.1a4.41,4.41,0,0,1,1.2,1.1,2,2,0,0,1,.3,1.1v.7a3.09,3.09,0,0,1-.2.8l-.1,1c-.1.4-.2.8-.3,1.1l-.3.9-.4.6v.5c-.2.5-.5,1-.7,1.6s-.5,1.4-.9,2.5l-.3.2.1.1c.1.1.1.2.1.4a.86.86,0,0,1-.3.6,1.08,1.08,0,0,0-.3.7v.2l1.2-1.1a7.63,7.63,0,0,1,.8-1.1,11.41,11.41,0,0,1,1.1-1.1l.4-.2.2-.3.1-.3a2.19,2.19,0,0,1,.3-.5.78.78,0,0,1,.4-.4l.9-.5.4-.7a14.57,14.57,0,0,1,2.8-2.2,5,5,0,0,1,2.4-.7,2.5,2.5,0,0,1,1.3.3,1.78,1.78,0,0,1,.7.8l.5.6c.1.3.4.8.7,1.5a11.25,11.25,0,0,0,.7,1.5l-.2.6a2.6,2.6,0,0,1,.8,1.2c.3.6.6.9,1,.9a.76.76,0,0,0,.4-.1,4.33,4.33,0,0,1,.5-.1l.3-.1.2-.4.7-.5.5-.5a7.29,7.29,0,0,0,2.3-1.2,5.58,5.58,0,0,1,1.8-1c.2,0,.3,0,.4.1s.1.2.1.5a.77.77,0,0,1-.1.3c-.1.2-.1.5-.2.7l-.4.4c-.5.6-1.1,1.3-1.7,1.9s-1.3,1.3-2,2.1l-.3.3-.5.3c-.1.4-.5.7-1,1-.1.1-.2.1-.2.2l-.4.4-1.2.5a4.88,4.88,0,0,0-.7.3.9.9,0,0,1-.5.1,2.6,2.6,0,0,1-2-1,7.34,7.34,0,0,1-1.7-2.6l-.1-.6a4.74,4.74,0,0,1-1-1,12.7,12.7,0,0,1-1-1.2.37.37,0,0,0-.3-.1h-.3a1.6,1.6,0,0,0-.8.3,18.21,18.21,0,0,0-1.6,1.3l-.5.2-.5.7a2.34,2.34,0,0,1-.7.7,3,3,0,0,1-.8.4l-.8,1.2c-1.1,1.3-2,2.3-2.6,2.9a20.89,20.89,0,0,1-1.5,1.5,3.75,3.75,0,0,1-1.4,1.2,4.84,4.84,0,0,1-1.8.3,1.29,1.29,0,0,1-.8-.2.91.91,0,0,1-.3-.7l.1-.8-.2-.3.1-.6q.9-2.85,1.2-4.2a8.13,8.13,0,0,0,.4-1.7.77.77,0,0,1,.1-.3,1.42,1.42,0,0,0,.2-.6l.3-.5a.35.35,0,0,0-.1-.2v-.2a6.2,6.2,0,0,1,.3-1.1,4.41,4.41,0,0,0,.3-1.4c0-.1,0-.2-.2-.2s-.2-.1-.4-.1a2.09,2.09,0,0,0-1.6.8c-.4.6-.7.9-.8.9l-.8,1-.7.6-.4.1-.2.2-.2.3-.2.3c-.2.1-.3.2-.4.2l-.2.2-.5.5c-1.4,1.1-2.6,1.9-3.4,2.5a3.17,3.17,0,0,1-1.6.8c-.2,0-.3,0-.4-.2a.6.6,0,0,1,0-.9c.1-.2.3-.3.6-.5v-.5a29.6,29.6,0,0,1,2.3-2.5,4.33,4.33,0,0,1,1.2-1,.31.31,0,0,0-.1-.2c0-.1,0-.1.1-.1h.2c.1,0,.2,0,.2-.1a.75.75,0,0,0,.1-.5l.4-.3Zm-29.6,0,.4-.4c.6-.7,1.5-1.7,2.6-2.9,3.1-3.6,5-5.5,5.6-5.7l.6-.2.6-.4.7-.2.4.1.4.1a4.41,4.41,0,0,1,1.2,1.1,2.1,2.1,0,0,1,.4,1.1,1.7,1.7,0,0,1-.1.7c-.1.2-.1.5-.2.8l-.1,1c-.1.4-.2.8-.3,1.1l-.3.9-.4.6v.5c-.2.5-.5,1-.7,1.6s-.5,1.4-.9,2.5l-.3.2a.1.1,0,0,0,.1.1c0,.1.1.2.1.4a.86.86,0,0,1-.3.6,1.08,1.08,0,0,0-.3.7v.2l1.2-1.1a7.63,7.63,0,0,1,.8-1.1,11.41,11.41,0,0,1,1.1-1.1l.4-.2.2-.3.1-.3a1,1,0,0,1,.4-.5.78.78,0,0,1,.4-.4l.9-.5.5-.7a12.06,12.06,0,0,1,2.8-2.2,4.42,4.42,0,0,1,2.4-.7,2.5,2.5,0,0,1,1.3.3,1.78,1.78,0,0,1,.7.8l.6.6c.1.3.4.8.7,1.5s.6,1.2.7,1.5l-.2.6a2.6,2.6,0,0,1,.8,1.2c.3.6.6.9,1,.9a.76.76,0,0,0,.4-.1,4.33,4.33,0,0,1,.5-.1l.2-.1.2-.4.7-.5.5-.5a8.52,8.52,0,0,0,2.3-1.2,5.58,5.58,0,0,1,1.8-1c.2,0,.3,0,.4.1s.1.2.1.5a.77.77,0,0,1-.1.3c-.1.2-.1.5-.2.7l-.4.4c-.5.6-1.1,1.3-1.7,1.9s-1.3,1.3-2,2.1l-.3.3-.5.3c-.1.4-.4.7-1,1-.1.1-.2.1-.2.2l-.4.4-1.2.5a4.88,4.88,0,0,0-.7.3.9.9,0,0,1-.5.1,2.75,2.75,0,0,1-2-1,7.34,7.34,0,0,1-1.7-2.6l-.1-.6a4.74,4.74,0,0,1-1-1,12.49,12.49,0,0,1-.9-1.2.37.37,0,0,0-.3-.1h-.3a1.6,1.6,0,0,0-.8.3,18.21,18.21,0,0,0-1.6,1.3l-.6.2-.5.7a2.34,2.34,0,0,1-.7.7,2,2,0,0,1-.8.4l-.8,1.2c-1.1,1.3-2,2.3-2.6,2.9a20.89,20.89,0,0,1-1.5,1.5,3.13,3.13,0,0,1-1.4,1.2,4.84,4.84,0,0,1-1.8.3,1.29,1.29,0,0,1-.8-.2.91.91,0,0,1-.3-.7l.1-.8-.2-.3.1-.6c.6-1.9,1-3.3,1.3-4.2a8.13,8.13,0,0,0,.4-1.7.77.77,0,0,1,.1-.3c.1-.2.1-.4.2-.6l.3-.5a.35.35,0,0,0-.1-.2v-.2a6.2,6.2,0,0,1,.3-1.1,4.41,4.41,0,0,0,.3-1.4.22.22,0,0,0-.2-.2c-.1-.1-.2-.1-.4-.1a2.09,2.09,0,0,0-1.6.8c-.4.6-.7.9-.8.9l-.7,1-.6.6-.4.1-.2.2-.2.3-.2.3c-.2.1-.3.2-.4.2s-.1.1-.1.2l-.6.5c-1.4,1.1-2.5,1.9-3.4,2.5a3.59,3.59,0,0,1-1.6.8c-.2,0-.3,0-.4-.2a.6.6,0,0,1,0-.9c.1-.2.3-.3.6-.5v-.5a29.6,29.6,0,0,1,2.3-2.5,4.33,4.33,0,0,1,1.2-1,.31.31,0,0,0-.1-.2c0-.1,0-.1.1-.1h.2c.1,0,.2,0,.2-.1a.75.75,0,0,0,.1-.5l.4-.3Zm-22.9,3.2a24.17,24.17,0,0,1-3.4,2.8,7,7,0,0,1-2.3,1.3.71.71,0,0,1-.6-.6,1.42,1.42,0,0,1,.2-.6c.1-.2.3-.3.6-.5v-.5c.8-1,1.6-1.8,2.2-2.5a4.33,4.33,0,0,1,1.2-1,2.09,2.09,0,0,0,.8-1c.1-.2.2-.3.2-.4l.6-.4.4-.4.3-.2.2-.5,1.4-1.4,1.3-1.1,1.1-1.4a5.73,5.73,0,0,1,1.1-1.1,14.7,14.7,0,0,1,1.3-1l.5-.3.1-.4a7.05,7.05,0,0,1,2.1-1.8,3.06,3.06,0,0,1,1.7-.4,3,3,0,0,1,1,.2c.3.1.4.3.4.4a9.24,9.24,0,0,0-.5.9c-.3.5-.7,1-.9,1.4l1.2-.7.7-.3c.1-.1.3-.1.4-.2a4.33,4.33,0,0,1,.5-.1h.4c.1,0,.2,0,.2.1l.6-.1a5.72,5.72,0,0,1,3.4,1.6,4.45,4.45,0,0,1,1.3,3.3v.6l-.3,1.3-.1.5-.3,1-.6,1.4-.4.5-.5.4-.2.6a4.79,4.79,0,0,1-.8,1.1c-.5.6-1.3,1.4-2.1,2.3l-.5.8-.5.3-.5.1-.6.5a3.92,3.92,0,0,1-1,.8l-.9.6-1,.1-.5.1-.4.5c-.3.1-.6.2-1,.3a3.22,3.22,0,0,0-.6.2h-.5a.76.76,0,0,1-.5.2,1.48,1.48,0,0,1-.7.1,4.43,4.43,0,0,1-3-1.1,3.49,3.49,0,0,1-1.2-2.8v-.3l.1-.4c0-.1-.1-.3-.1-.4a2,2,0,0,1-.1-.7,20.13,20.13,0,0,1,.6-2.9l.1-.6-.4.3-.5.6-.5.3Zm6.6-1.4v.6l-.1.6v.5l-.2.6c0,.1,0,.1-.1.2v.4a1.27,1.27,0,0,0,.1.6,1.42,1.42,0,0,0,.2.6v.2c.1.2.3.3.4.4a.76.76,0,0,0,.5.2l.6.1a3,3,0,0,1,1-.5c.5-.2.9-.4,1.1-.5l.8-.5,2.1-2.1.7-.9.4-.2-.1-.5.2-.4a18.15,18.15,0,0,0,.9-2.3l.1-.1.1-.7a3.39,3.39,0,0,0-1-1.6,2,2,0,0,0-1.3-.4h-.4c-.1,0-.3.1-.4.1l-.6.2-.4.5a5.56,5.56,0,0,0-1.4,1.6c-.5.7-.8,1.1-1.1,1.2l-.7-.2h-.4c0,.3,0,.5-.1.6s-.1.3-.1.4Zm-13.5,5.8c.2.1.4.2.4.3s.1.2.1.4a.76.76,0,0,1-.1.4c-.1.2-.1.4-.2.6a4.05,4.05,0,0,1-.5.9,5,5,0,0,1-.7.8l-.5.2-.3.7a36.5,36.5,0,0,1-5.6,2.8,14.85,14.85,0,0,1-4.7.9,7.57,7.57,0,0,1-1.5-.1c-.5-.1-1-.2-1.4-.3l-.6-.6-.5.2-.7-.7-.8.1a9.07,9.07,0,0,1-3.7-2.8,14.65,14.65,0,0,1-2.7-4.9l.1-.7-.4-.5.1-.6-.4-.3-.1-.9.1-.5-.3-.3.3-1-.4-.3.1-1-.2-.6a31.48,31.48,0,0,1,.4-5,4.59,4.59,0,0,1,.9-2.4l-.1-1.3.3-1.2.4-.4a13.76,13.76,0,0,1,1.8-4.2,40.48,40.48,0,0,1,3.9-5.5l.8-.7.8-1.1,1.2-.8.5-.2.2-.5a21.08,21.08,0,0,1,4.3-3,24,24,0,0,1,6.2-1.7l.6.1,1-.2,1.1.5.3.5,1,.2,1.1.8v.3l.6.4a24,24,0,0,1,.5,3.2c.1,1.2.2,2.5.2,4a14.79,14.79,0,0,1-.1,2.2c-.1.7-.2,1.3-.3,2l-.3.5.1.7a23.73,23.73,0,0,1-1,3.4c-.5,1.3-1.1,3-1.9,4.9l-.2.7-.9.5-.6-.2-.5.5-1.2.3-.4-.3H202l-.1-1.3.4-.4-.3-.7v-.5a18.86,18.86,0,0,1,.6-4.9l-.1-.4.4-.8-.1-.8c.2-.6.5-1.2.7-1.9a15.45,15.45,0,0,0,.6-2.3l1.4-1.3.3-2-.1-1a7.29,7.29,0,0,0-1.1-.9,5,5,0,0,0-1.3-.5l-.3-.5-2.1.1-.6-.2-.5.5-1.3.3c-.4.1-.8.3-1.2.4l-.6-.2-.8.4-.1.5-1.4,1.2H194l-.2.6a17.38,17.38,0,0,0-1.3,1.5,17.41,17.41,0,0,1-1.2,1.4l-.3.4.1.5a23.37,23.37,0,0,0-2.6,5.8,35,35,0,0,0-1.2,7.1l-.4.9.4.7c.1.7.1,1.3.2,1.9l.3,1.8-.1.8.5.8.6,1.2c.4.7.6,1.2.8,1.6v1l.9.5a6.57,6.57,0,0,0,2.8,2.3,7.17,7.17,0,0,0,3.4,1,9.22,9.22,0,0,0,1.8-.3,10.39,10.39,0,0,1,2.1-.3l.3.2,1.1-1,1-.2.6-.6,1.2-.5.9.1.2-.7Z" transform="translate(-181.85 -177.04)" style="fill:#231f20"/><path id="path10" d="M439.65,510a9.74,9.74,0,0,1-1.1.5,2.92,2.92,0,0,1-.9.2c-.2,0-.4-.2-.7-.5a5.55,5.55,0,0,0-.6-.8L436,508l.1-1.3-.4-.9v-4.4a8.62,8.62,0,0,1,.1-1.7,5,5,0,0,1,.4-1.3l-.3-.8c.3-2.4.4-4.2.5-5.4s.2-2.3.4-3.4l.2-1.7.2-.3c-.1-.6-.1-1.2-.2-1.7a7.57,7.57,0,0,1-.1-1.5l-.8-.1a2.77,2.77,0,0,1-.1-.9c0-.2-.1-.5-.1-.6s.1-.4.2-.9a4.33,4.33,0,0,1,.1-.5l.3-.8-.1-.9.7-2.8.5-.7.1-1.3c.1-.3.2-.7.4-1.2,1-2.8,2.2-4.4,3.7-4.7l.5.1.5-.4c.4-.1.8-.2,1.1-.3a2.77,2.77,0,0,1,.9-.1c.2,0,.3.1.4.3a3.11,3.11,0,0,1,.1,1.1,55.34,55.34,0,0,1-1,7.4,14.79,14.79,0,0,1-1.3,3.9l.2.7-.5,2.2-.5,2.5.1.8-.4,1.4.1,1-.4,1.1v.8l-.3,1.7-.4,4,.1,1a22.57,22.57,0,0,0-.4,2.9c-.1,1-.1,2.4-.1,4a3.75,3.75,0,0,0,.1,1,10.4,10.4,0,0,0,.2,1.5v.6l.5.7a1.91,1.91,0,0,1-.5,1,6.23,6.23,0,0,1-1.2.9m-34.9-3.8-.3-.3-.2-.8-.8-.4-.6-.7-.8-1.1a6.23,6.23,0,0,1-1.4-1.8,12,12,0,0,1-.8-2.8l-.1-.4v-.5l-.1.3-.7.2-.6.5-.6.3-.3.3a.52.52,0,0,1-.2.4c-.1.1-.1.1-.2.1a.1.1,0,0,1-.1-.1h-.2l-.3.3a1,1,0,0,1-.6.5,1.55,1.55,0,0,0-1.1.7,1.62,1.62,0,0,1-1.4.7,1.45,1.45,0,0,1-.7-.2.6.6,0,0,1-.3-.6,1.79,1.79,0,0,1,.4-.8,3.82,3.82,0,0,1,.9-.9c.2-.1.3-.3.4-.7a.79.79,0,0,1,.8-.5l.6-.7a2,2,0,0,0,.7-.6,2,2,0,0,0,.4-.8l.3-.2a4.88,4.88,0,0,1,.3-.7,1.54,1.54,0,0,1,.6-.4l.2-.1.1-.4,1.8-2.2,1-1.5.5-.9.5-.3.3-.8a10,10,0,0,1,1.8-2.5,14.63,14.63,0,0,0,1.7-2.2l1.1-1,.2-.4.8-.4.3-.6a29.77,29.77,0,0,1,3-2,3.68,3.68,0,0,1,1.6-.5,1.33,1.33,0,0,1,1,.3,2.3,2.3,0,0,1,.4,1.1l.2.9c0,.3-.1.5-.1.7a1,1,0,0,1-.4.5l-.8,1.4c-.3.3-.7.8-1.2,1.3s-1.3,1.5-2.3,2.7l-.5.2-.6.9-.7.5-.2.4a15.38,15.38,0,0,0-1.3,1.2,4.7,4.7,0,0,0-.9,1.2l-.7.2v.6l-.5,1.1.2.5.1,2a21,21,0,0,0,1.5,3,18.6,18.6,0,0,0,2.1,2.8l1-.6,2.1-2.2,1.6-1.3.5-.7.9-.8.6-.4a17.49,17.49,0,0,1,2-1.6,5.57,5.57,0,0,1,1.4-.8c.2,0,.3.1.5.2a.55.55,0,0,1,.2.5,3.61,3.61,0,0,1-.8,1.5,9.68,9.68,0,0,0-1.1,1.8,4.13,4.13,0,0,0-1.1.7,6.47,6.47,0,0,0-.8.9l-1,.8-.3.5-.9.9-.8.5-.1.7-1.2,1.2-.6,1a37.29,37.29,0,0,1,2.6,4.3,6.6,6.6,0,0,1,.6,2.7c0,.3-.1.8-.1,1.6a3.54,3.54,0,0,1-.1.6l-.4.3.1.8a14.57,14.57,0,0,1-2.9,4.1,24.23,24.23,0,0,1-4.5,3.5l-.6.1-.4.4a20.93,20.93,0,0,1-2.1.5,10,10,0,0,1-1.6.2,5.09,5.09,0,0,1-2.2-.5,4.1,4.1,0,0,1-1.6-1.6v-3.9a3.09,3.09,0,0,1,.2-.8,12,12,0,0,1,.6-1.7l.4-.5.1-.5c.4-.7.8-1.3,1.1-1.8a7.47,7.47,0,0,1,1.1-1.3l.5-.4.1-.4c.3-.4.9-1,1.6-1.9a18.46,18.46,0,0,1,1.6-1.8Zm2.1,2.6a.76.76,0,0,0-.5.2c-.1.1-.3.2-.4.3l-.2.6a38.79,38.79,0,0,0-3.5,4.2,29.86,29.86,0,0,0-2.2,3.7l-.2.9-.5,1,.2.4.2.5a1.76,1.76,0,0,0,.5.4,1.09,1.09,0,0,0,.5.1,3.08,3.08,0,0,0,.9-.1c.3-.1.7-.1,1-.2l1.7-.9.8-.1.1-.8a9.34,9.34,0,0,0,2.8-2.8,6.53,6.53,0,0,0,1-3.6v-.2l-.5-1.6-1-1.3Zm-38.5-13.9.4-.4c.6-.7,1.5-1.7,2.6-2.9,3.1-3.6,5-5.5,5.6-5.7l.6-.2.6-.4.7-.2.4.1.4.1a4.41,4.41,0,0,1,1.2,1.1,2,2,0,0,1,.3,1.1,1.7,1.7,0,0,1-.1.7,3.09,3.09,0,0,1-.2.8l-.1,1c-.1.4-.2.8-.3,1.1l-.3.9-.4.6v.5a7.74,7.74,0,0,0-.7,1.6c-.2.6-.5,1.4-.9,2.5l-.3.2a.1.1,0,0,0,.1.1c0,.1.1.3.1.4a.86.86,0,0,1-.3.6,1.08,1.08,0,0,0-.3.7v.2l1.2-1.1a7.63,7.63,0,0,1,.8-1.1,11.41,11.41,0,0,1,1.1-1.1l.4-.2.2-.3.1-.3a2.19,2.19,0,0,1,.3-.5c.1-.2.3-.3.4-.4l.9-.5.4-.7a14.57,14.57,0,0,1,2.8-2.2,4.67,4.67,0,0,1,2.4-.7,2.5,2.5,0,0,1,1.3.3,1.78,1.78,0,0,1,.7.8l.6.6c.1.3.4.8.7,1.5a11.25,11.25,0,0,0,.7,1.5l-.2.7a2.6,2.6,0,0,1,.8,1.2c.3.6.6.9,1,.9a.76.76,0,0,0,.4-.1,4.33,4.33,0,0,1,.5-.1l.2-.1.2-.4.7-.5.5-.5a7.29,7.29,0,0,0,2.3-1.2c.9-.6,1.4-1,1.8-1,.2,0,.3,0,.4.1s.1.2.1.5a.77.77,0,0,1-.1.3c-.1.2-.1.5-.2.7l-.4.4c-.5.6-1.1,1.3-1.7,1.9l-2,2-.3.3-.5.3c-.1.4-.4.7-1,1-.1.1-.2.1-.2.2l-.4.4-1.2.5c-.2.1-.5.2-.7.3a.9.9,0,0,1-.5.1,2.6,2.6,0,0,1-2-1,7.34,7.34,0,0,1-1.7-2.6l-.1-.6a4.74,4.74,0,0,1-1-1c-.3-.4-.6-.7-1-1.2a.37.37,0,0,0-.3-.1h-.3a1.6,1.6,0,0,0-.8.3,18.22,18.22,0,0,0-1.6,1.3l-.6.2-.5.7a2.34,2.34,0,0,1-.7.7,2,2,0,0,1-.8.4l-.8,1.2c-1.1,1.3-2,2.3-2.6,2.9a20.89,20.89,0,0,1-1.5,1.5,3.75,3.75,0,0,1-1.4,1.2,4.84,4.84,0,0,1-1.8.3,1.29,1.29,0,0,1-.8-.2.91.91,0,0,1-.3-.7l.1-.9-.2-.3.1-.6q.9-2.85,1.2-4.2a8.13,8.13,0,0,0,.4-1.7.77.77,0,0,1,.1-.3,1.42,1.42,0,0,0,.2-.6l.3-.5a.35.35,0,0,0-.1-.2v-.2a6.2,6.2,0,0,1,.3-1.1,4.41,4.41,0,0,0,.3-1.4.35.35,0,0,0-.1-.2c-.1-.1-.2-.1-.4-.1a2.09,2.09,0,0,0-1.6.8c-.4.6-.7.9-.8.9l-.8,1-.7.6-.4.1-.2.2-.2.3-.2.3c-.2.1-.3.2-.4.2l-.2.2-.5.5c-1.4,1.1-2.5,1.9-3.4,2.5a3.59,3.59,0,0,1-1.6.8.52.52,0,0,1-.4-.2.6.6,0,0,1,0-.9c.1-.2.3-.3.6-.5v-.5a29.92,29.92,0,0,1,2.2-2.5,4.33,4.33,0,0,1,1.2-1,.31.31,0,0,0-.1-.2.1.1,0,0,1,.1-.1h.2c.1,0,.2,0,.2-.1a.75.75,0,0,0,.1-.5l.4-.3Zm-4.6,7.9-.3.3-1.1.5-1,.1h-.8a2.77,2.77,0,0,1-1.3-.3,2.54,2.54,0,0,1-1-.8l-.2-.5-.4-.4v-.3l-.1-.2-.3-.2-.7-1.4V499l-.4-.3-.6-1.1a2.18,2.18,0,0,1-.4-.5q-.45-.6-.6-.6a.37.37,0,0,0-.3.1c-.1.1-.2.1-.3.2l-.5.1-.2.4-.6.6-.4.1-.4.3-.2.3-.3.3a17.21,17.21,0,0,1-1.8,1.3,11.35,11.35,0,0,1-3.3,2,.4.4,0,0,1-.4-.2.6.6,0,0,1,0-.9c.1-.2.3-.3.6-.5v-.5c.8-1,1.6-1.8,2.2-2.5a4.33,4.33,0,0,1,1.2-1c.3-.3.5-.7.7-.9a6,6,0,0,1,.8-.8l.5-.6.4-.2.1-.3c.2-.2.5-.6,1-1.2s.9-1.2,1.3-1.6l.7-.4.3-.6.6-.5h2.2l1.1.7q.6.3.9,2.7v.3l.4,2.8.2.4a5.27,5.27,0,0,0,.9,2.1,1.73,1.73,0,0,0,1.3.5,2.35,2.35,0,0,0,.8-.2,2.1,2.1,0,0,0,.8-.6l.6-.1.3-.4,1.2-1,.3-.5a14,14,0,0,0,2.6-1.6c.9-.6,1.4-1,1.7-1a.71.71,0,0,1,.6.6.31.31,0,0,1-.1.2l-.3.9-.4.4a17.41,17.41,0,0,0-1.2,1.4c-.3.5-.6.8-.7.8h-.1l-.4.6-.6.7-.4.2-.6.5a15.62,15.62,0,0,0-1.3,1.3,7.86,7.86,0,0,1-2.3,1.6m-5.7-22.7-.6.2a.52.52,0,0,1-.4-.2l-.3-.3-.2-.5a1.69,1.69,0,0,1-.2-.5.9.9,0,0,1-.1-.5,4.14,4.14,0,0,1,.5-1.9,11.16,11.16,0,0,1,1.9-2.1l.3-.1.5.1.1-.5,1.1-1.1.7-.2c.2-.1.3-.2.5-.3a1.27,1.27,0,0,1,.6-.1,1.22,1.22,0,0,1,.9.3.75.75,0,0,1,.4.7v.1l-.3,1.8-.4,1.2-.3.2v.5l-.4.9a4.37,4.37,0,0,1-.7.8l-.6.6-.4.1-.2.2a6.58,6.58,0,0,1-1.2.6,2,2,0,0,1-.7.1h-.2Zm-8.6-7.4c-.2.5-.3,1.1-.5,1.8s-.3,1.3-.5,2.1a.75.75,0,0,1,.5.1c.2,0,.3.1.5.2a.37.37,0,0,1,.3.1c.1,0,.1.1.1.2v.2c0,.6.1,1.2.1,1.8a6.17,6.17,0,0,1,.1.9,1.61,1.61,0,0,1-.3,1.1,1.74,1.74,0,0,1-1.2.3h-1.5c-.1.4-.3.8-.4,1.2a9.29,9.29,0,0,1-.5,1,.37.37,0,0,0,.1.3.31.31,0,0,1,.1.2.76.76,0,0,1-.2.4c-.1.1-.1.2-.2.2-.8,3.2-1.4,5.8-1.9,7.8s-.8,3.7-1,5.2v.2a.37.37,0,0,0-.1.3v.4q-.15,1.05-.3,1.8a7.17,7.17,0,0,0-.1,1.3.76.76,0,0,0,.2.4,1.44,1.44,0,0,0,.3.2,1.79,1.79,0,0,0,.8-.4,1.38,1.38,0,0,0,.4-.3h.8c0-.1-.1-.2-.1-.3v-.3a.35.35,0,0,0,.1-.2,10,10,0,0,0,1.1-1c.4-.3.9-.7,1.4-1.1.1-.2.1-.3.2-.4s.2-.2.3-.3c.3-.2.5-.4.8-.6a6,6,0,0,0,.8-.8l.2-.1.2-.4a4.39,4.39,0,0,1,.9-.5c.2-.1.5-.2.7-.3s.2-.1.3-.2c.4-.4.8-.6,1-.8l.4-.2a2.09,2.09,0,0,1,.6-.4.9.9,0,0,1,.5-.1c.2,0,.3,0,.4.1s.2.1.2.3a.37.37,0,0,1-.1.3c-.1.1-.1.3-.2.5l-.1.4c-.3.3-.5.6-.8.9l-.9.9c-.1.3-.1.5-.2.6a.85.85,0,0,1-.6.2l-.5.7-.9,1-1,1a2.31,2.31,0,0,1-.7.5.37.37,0,0,0-.3.1c0,.1-.1.2-.1.3a12.57,12.57,0,0,1-1.3,1.6,4.36,4.36,0,0,1-1.1.9.52.52,0,0,0-.4.2.76.76,0,0,0-.2.5,8.52,8.52,0,0,1-1.6,1.7,11,11,0,0,1-2.1,1.4h-.1a2.19,2.19,0,0,1-.5.3,1.27,1.27,0,0,1-.6.1h-.4a.1.1,0,0,0-.1-.1l-.1-.1a.1.1,0,0,0-.1.1c-.1,0-.2,0-.2.1a.35.35,0,0,1-.2-.1q-.15,0-.3-.3a1.8,1.8,0,0,1-1.5-.9,5.11,5.11,0,0,1-.4-2.6v-1a.6.6,0,0,0-.1-.4v-1a3.4,3.4,0,0,1,.1-1,3.81,3.81,0,0,1,.3-1l.2-.4c-.1-.1-.1-.1-.1-.2v-.5c.2-1.1.4-2,.6-2.8a16.69,16.69,0,0,1,.6-2c.3-.3.4-.5.5-.5a.37.37,0,0,0,.1-.3.31.31,0,0,0-.1-.2c0-.1-.1-.1-.1-.2l.2-.9-.4.6a1.76,1.76,0,0,0-.5.4c-.1.2-.4.6-.7,1.1a3.81,3.81,0,0,1-.6.5,1,1,0,0,0-.5.8l-.7.7a1.54,1.54,0,0,1-.4.6.76.76,0,0,1-.4.2.75.75,0,0,0-.5.1c-.1.1-.1.2-.2.4l-.2.5-.7.5a2.18,2.18,0,0,0-.5.4,1.63,1.63,0,0,0-.3.6l-.3.2a3.6,3.6,0,0,0-.9.5,2.18,2.18,0,0,0-.5.4c-.2.1-.3.1-.5.2s-.3.2-.5.4-.6.3-.7.4-.3.3-.5.4l-.6.4c-.1,0-.2.1-.3.1H328c-.3,0-.4,0-.5-.1a.59.59,0,0,1-.2-.5v-.2a2.19,2.19,0,0,1,.3-.5.76.76,0,0,1,.5-.2V500c.3-.3.6-.5.8-.7a2.65,2.65,0,0,0,.5-.6l-.1-.4,1-.5c.1-.2.3-.4.4-.6a4.23,4.23,0,0,1,.7-.5l.3-.5a.1.1,0,0,0,.1-.1c.3-.2.5-.3.6-.5h.1a1.76,1.76,0,0,1,.6-.1V495l.5-.7q1.2-1.5,1.8-2.1a8,8,0,0,1,1.6-2.5l.3-.3c.2,0,.3-.1.4-.1a.37.37,0,0,0,.1-.3v-.2a.35.35,0,0,0-.1-.2c.3-.4.5-.8.8-1.2l.6-1.2h.1c.3,0,.6-.5,1-1.4a13.32,13.32,0,0,1,1.2-2.4,2.65,2.65,0,0,1,.5-.6c.1-.2.3-.5.4-.7l-.8-.1a6.9,6.9,0,0,0-.8.3,1.27,1.27,0,0,1-.6.1,2.25,2.25,0,0,1-.7-.1c-.3,0-.5-.1-.7-.1h-.2c-.1,0-.1.1-.2.1a.1.1,0,0,1-.1-.1h-.4c-.1,0-.1,0-.2.1h-3.2c-.1-.1-.2-.1-.3-.2l-.3-.3c0,.1-.1.2-.1.3l-.3.3h-.2a1.27,1.27,0,0,1-.6-.1,5.74,5.74,0,0,1-.7-.4.85.85,0,0,1-.6-.2c-.1-.1-.1-.3-.1-.7a4.4,4.4,0,0,1,.1-.9,6.15,6.15,0,0,0,.1-1.3v-.4c0-.2-.1-.3-.1-.5h.4c.1,0,.1-.1.3-.2a5.64,5.64,0,0,1,.7-.1,5.38,5.38,0,0,1,1.1-.1,3.4,3.4,0,0,1,1,.1c.3,0,.7.1,1,.1a8.17,8.17,0,0,1,1.4-.1h1.4c.3,0,.5.1.8.1h.3a.31.31,0,0,0,.2-.1c.1,0,.2-.1.3-.1h1.2a1.09,1.09,0,0,1,.5.1c.2,0,.5.1.8.1l.3.2a2.2,2.2,0,0,0,.8-.1,6.37,6.37,0,0,0,.7-.2,17.15,17.15,0,0,1,.9-1.9,7.91,7.91,0,0,0,.5-1.3,1.54,1.54,0,0,1,.4-.6c.2-.2.4-.3.6-.5v-.1a.74.74,0,0,1,.5-.6,2,2,0,0,1,1.1-.3,4.33,4.33,0,0,1,.5.1.85.85,0,0,1,.3.6c.1.2.2.3.2.5v.2" transform="translate(-181.85 -177.04)" style="fill:#231f20"/><path id="path12" d="M522.25,498.36a1.42,1.42,0,0,0-.9.8c-.3.4-.4.6-.5.6s-.2-.1-.3-.1a.31.31,0,0,0-.2-.1.1.1,0,0,0-.1.1c-.1,0-.1.1-.3.2l-.3.4a5.58,5.58,0,0,1-.8.5,1.54,1.54,0,0,0-.6.4l-.5.3-.4.4-.5.4a.37.37,0,0,1-.3.1h-.5c-.1,0-.1,0-.2-.1l-.1-.3a1.88,1.88,0,0,1,.2-.8.78.78,0,0,1,.4-.4l-.1-.7.5-.5.9-.9.2-.7h.2c.2,0,.3,0,.4-.1a1.38,1.38,0,0,0,.3-.4l.3-.5.9-.4a9.22,9.22,0,0,0,.5-.8l.6-.6a11.49,11.49,0,0,0,1-.8c.3-.2.5-.4.7-.5l.3-.1a2.09,2.09,0,0,1,.4-.6l.8-.8,1-.8c.2-.3.5-.5.7-.8l.9-.9.5-.1v-.4l2.2-1.6.7-.5.3-.3a.76.76,0,0,1,.4-.2l.5-.5.3-.2a1.7,1.7,0,0,1,.6-.6,5.58,5.58,0,0,1,.8-.5l.3-.1.3-.4q.75-.6,2.1-1.5c.3-.2.5-.4.7-.5l.8-.5a2.19,2.19,0,0,0,.5-.3.76.76,0,0,1,.4-.1.6.6,0,0,0,.4-.1.76.76,0,0,1,.4-.1h.7a1.61,1.61,0,0,1,.9.3c.3.2.5.4.5.5a.1.1,0,0,1-.1.1c0,.1-.1.1-.1.2a.35.35,0,0,0,.2.1l.1.1a1.91,1.91,0,0,1-.7,1.2,8.62,8.62,0,0,1-1.8,1.4l-.4.5c0,.2-.4.6-1.2,1.3a14.25,14.25,0,0,0-1.2,1.1l-.5.3-.4.5-.5.5-.6.7-.6.3-.2.4-.9.9-.6.7-.6.2-.9,1.2c-.3.4-.7.8-1.1,1.3l-1,.9-.9.9a1.69,1.69,0,0,1-.2.5c-.1.1-.2.3-.4.5l-.3,1.1a.35.35,0,0,1,.2.1h.2c.1,0,.2-.1.3-.1l.7-.5.6-.2.4-.3.5-.6.3-.1.5-.1c.1-.3.2-.5.5-.6a.37.37,0,0,1,.3-.1l.2-.4.7-.5c.3-.3.7-.6,1.1-1s.9-.7,1.4-1.1l1-1,1.3-1.1a2.84,2.84,0,0,1,1.1-.8,3.34,3.34,0,0,1,1.5-.3c.3,0,.5.2.8.5a2,2,0,0,1,.3,1.1v.1l-.2.5.1.3-.1,1.5-.1.5.2.4.1.9a2.73,2.73,0,0,0,.8,1.4,2.17,2.17,0,0,0,1.4.5,2.34,2.34,0,0,0,1.3-.7c.6-.4.9-.8.9-1s.2-.2.7-.4a10.37,10.37,0,0,0,1-.4l.7-.8a.85.85,0,0,0,.6-.2.78.78,0,0,0,.4-.4l.4-.3h.4c.2,0,.3.1.4.1a.52.52,0,0,1,.2.4v.1a.6.6,0,0,1-.1.4c-.1.1-.1.3-.3.5-.2.4-.5.7-.7,1.1l-.9.9-.2.6-.6.1a1.87,1.87,0,0,1-1.4,1.4,4.35,4.35,0,0,1-.6.7,3,3,0,0,1-.8.4,6.4,6.4,0,0,1-1.5,1.4,3.81,3.81,0,0,1-1.9.4,4.51,4.51,0,0,1-3.5-1.4,4.92,4.92,0,0,1-1.3-3.7v-1.2a.76.76,0,0,0-.4.2c-.2.1-.3.3-.4.4l-.5.6-1,.6-.7.7-.4.4a.31.31,0,0,1-.2.1h-.4c0,.6-.6,1.3-1.6,2.3a15.1,15.1,0,0,1-3.9,2.4,8.27,8.27,0,0,1-1.3.7,5.16,5.16,0,0,1-1.1.2,2.29,2.29,0,0,1-1.6-.7,1.89,1.89,0,0,1-.8-1.5,5.16,5.16,0,0,1,.2-1.1,4.82,4.82,0,0,1,.7-1.5Zm-5.5,4.4-.4.3-1.1.5-1,.1h-.8a2.77,2.77,0,0,1-1.3-.3,2.54,2.54,0,0,1-1-.8l-.2-.5-.4-.4v-.3l-.1-.2-.4-.2-.7-1.4V499l-.4-.3-.6-1.1a2.18,2.18,0,0,1-.4-.5q-.45-.6-.6-.6a.37.37,0,0,0-.3.1c-.1.1-.2.1-.3.2l-.5.1-.2.4-.6.6-.4.1-.4.3-.2.3-.3.3a10.58,10.58,0,0,1-1.8,1.3,11.35,11.35,0,0,1-3.3,2,.4.4,0,0,1-.4-.2.6.6,0,0,1,0-.9c.1-.2.3-.3.6-.5v-.5a29.61,29.61,0,0,1,2.3-2.5,4.33,4.33,0,0,1,1.2-1,7.05,7.05,0,0,1,.7-.9,3,3,0,0,1,.8-.8l.5-.6.3-.2.1-.3c.2-.2.5-.6,1-1.2s.9-1.2,1.3-1.6l.7-.4.3-.6.6-.5h2.2l1.1.7q.6.3.9,2.7v.3l.4,2.8.2.4a8.24,8.24,0,0,0,.8,2.1,1.73,1.73,0,0,0,1.3.5,3.09,3.09,0,0,0,.8-.2,2.1,2.1,0,0,0,.8-.6l.6-.1.2-.4,1.2-1,.2-.5a14,14,0,0,0,2.6-1.6,3.9,3.9,0,0,1,1.7-.9.71.71,0,0,1,.6.6.31.31,0,0,1-.1.2l-.3.9-.4.4a17.42,17.42,0,0,0-1.2,1.4c-.4.5-.6.8-.7.8h-.1l-.4.6-.6.7-.3.2-.6.5a15.62,15.62,0,0,0-1.3,1.3,4.52,4.52,0,0,1-1.9,1.5m-5.7-22.7-.6.2a.52.52,0,0,1-.4-.2l-.3-.3-.3-.5a1.69,1.69,0,0,1-.2-.5.9.9,0,0,1-.1-.5,3.29,3.29,0,0,1,.6-1.9,11.16,11.16,0,0,1,1.9-2.1l.3-.1.5.1.1-.5,1.1-1.1.7-.2c.2-.1.3-.2.5-.3a1.27,1.27,0,0,1,.6-.1,1.22,1.22,0,0,1,.9.3.75.75,0,0,1,.4.7v.1l-.4,1.8-.4,1.2-.3.2v.5l-.4.9c-.1.2-.4.5-.6.8l-.6.6-.4.1-.2.2-1.2.6a2,2,0,0,1-.7.1h-.2Zm-25.9,17.6.4-.7a17.88,17.88,0,0,0,1.3-1.4c.4-.5.8-1.1,1.3-1.7l.4-.2.3-.7a11.45,11.45,0,0,0,1.5-2.3c.6-1,1-1.6,1.2-1.9.1-.9.1-1.5.2-1.9s.1-.8.2-1.2h-.6l-.2.6-.3.5c-.2.2-.4.5-.7.8a4.51,4.51,0,0,1-.7.7l-.3.2-.5.2-.1.4a5.92,5.92,0,0,0-.4.6c-.8,1-1.4,1.9-2.1,2.7a2.65,2.65,0,0,0-.5.6c-.1.2-.2.5-.3.7a2.65,2.65,0,0,0-.5.6,2.12,2.12,0,0,0-.3.7c-.2.1-.3.3-.5.5a4.35,4.35,0,0,0-.4.7,1.45,1.45,0,0,1-.2.7,1,1,0,0,1-.4.5,1.33,1.33,0,0,1-.3.5,2.51,2.51,0,0,1-.4.7c0,.1-.1.2-.2.4a2.61,2.61,0,0,0-.3,1.1c.1.1.2.1.3.2s.1.1.2.1.2-.1.4-.2.3-.4.5-.6l.5-.4c.2-.2.3-.4.6-.7.3-.6.6-.8.9-.8Zm15.8-.3.9-.4.6-.4c.2-.2.3-.4.5-.5s.3-.2.5-.2l1.4-.6.7-.8c.2-.1.4-.1.5-.2s.2-.2.3-.2a1.76,1.76,0,0,1,.5-.4.76.76,0,0,1,.4-.1h.4l.2.2c0,.1.1.1.1.2s-.1.3-.2.7a1,1,0,0,1-.1.3l-.7,1-1,.9c-.1.3-.1.5-.3.6a1.17,1.17,0,0,1-.7.2,1.93,1.93,0,0,1-.5.9,1.88,1.88,0,0,1-1,.4l-.2.3-.5.2a1,1,0,0,1-.5.4,1.09,1.09,0,0,1-.5.1.1.1,0,0,0-.1.1,3.18,3.18,0,0,0-.8.6c-.3,0-.5.1-.7.1a4.87,4.87,0,0,1-.7.3l-.4.1-.5-.1h-.8a6.88,6.88,0,0,1-1.3-.2c-.5-.2-1.1-.5-1.7-.8l-.2-.3a2.18,2.18,0,0,0-.5-.4c-.1-.2-.3-.4-.4-.6l-.1-.4-.2-.2a2.09,2.09,0,0,1-.4-.6,4.87,4.87,0,0,1-.3-.7.1.1,0,0,1,.1-.1v-.3c0-.1,0-.3-.1-.3l-.3-.3c0-.3-.1-.6-.1-.8s-.1-.4-.3-.5l-.1-.7-.3-.6a4.35,4.35,0,0,0-.6.7,3,3,0,0,1-.3.4c-.2.1-.3.3-.5.4l-.3.6c-.3.1-.4.3-.6.4a4.87,4.87,0,0,0-.3.7l-.2.4-.6.6a6,6,0,0,1-.8.8l-.7.4-.3.6-.1.1a22.68,22.68,0,0,1-2.4,2.7l-.9.6-.6.6a5.55,5.55,0,0,0-.8.6l-.7.7-.7.3h-1.7c-.2,0-.3.1-.4.1h-.2a.86.86,0,0,1-.6-.3,1.58,1.58,0,0,1-.5-.8l-.1-.3-.1-.2V503l-.1-.2a7.61,7.61,0,0,1,.3-2.1c.2-.7.5-1.5.8-2.5l.2-1a8.65,8.65,0,0,1-1,.7,6.47,6.47,0,0,0-.9.8l-.7.3a.78.78,0,0,1-.4.4,4.87,4.87,0,0,1-.7.3l-.2.2a7.35,7.35,0,0,1-2.4,1.5.37.37,0,0,1-.3-.1,1.38,1.38,0,0,1-.3-.4l.1-.5a1.38,1.38,0,0,1,.3-.4c.1-.1.2-.2.3-.2l-.1-.7a1.38,1.38,0,0,1,.3-.4,1.54,1.54,0,0,1,.6-.4,4.35,4.35,0,0,1,.6-.7c.2-.2.5-.4.7-.6a1.23,1.23,0,0,1,.5-.8,1,1,0,0,1,.8-.3l.2-.6.5-.2c.1-.2.2-.3.3-.5a1.63,1.63,0,0,1,.6-.3h.2c.1,0,.1,0,.2-.1s.1-.2.1-.4a9.43,9.43,0,0,0,1-1c.3-.3.7-.6,1.1-1a3.92,3.92,0,0,0,.9-.4c.2-.1.2-.3.2-.5v-.1a6,6,0,0,0,.8-.7l1.5-1.5.3-.4.9-.7,1-1,1.5-1.5c.6-.6,1.4-1.2,2.3-2,.3-.2.6-.5,1-.8s.9-.7,1.5-1.2a2.3,2.3,0,0,1,.9-.3,1.09,1.09,0,0,1,.5-.1,5.64,5.64,0,0,0,.4-1.2,8,8,0,0,0,.3-1.5l.3-.4c.4-1.2.8-2.5,1.2-3.7a36.46,36.46,0,0,1,1.4-3.5l.4-.3v-.2a2.35,2.35,0,0,1,.2-.8c.1-.2.2-.5.4-.6a.1.1,0,0,1,.1-.1,2.51,2.51,0,0,0,.5-.8l.5-.6.2-.8a7.46,7.46,0,0,1,.7-1.2,10.59,10.59,0,0,1,1-1.2l.5-.7.6-.4.3.2.3-.2c.3,0,.5.1.7.1a.6.6,0,0,0,.4.1l.2.5-.2.3.2.3v.2a5.37,5.37,0,0,1-.4,1.9c0,.1-.1.2-.1.3v.6c-.1.5-.2.9-.3,1.3a3.13,3.13,0,0,1-.5,1l.1.5a5.28,5.28,0,0,1-.3,1.2c-.1.4-.3.7-.4,1.1l-.3.3.1.3-.1.3-.1.4a1.76,1.76,0,0,0-.4.5,1.27,1.27,0,0,0-.1.6v.5a7.37,7.37,0,0,1-.4,1.4,10.93,10.93,0,0,1-.8,1.5q-.3.15-.3.3a.37.37,0,0,0-.1.3.31.31,0,0,0,.1.2v.2a3,3,0,0,1-.4.8,9.25,9.25,0,0,1-.5,1c-.2,0-.3.1-.4.1l-.1.1a.31.31,0,0,0,.1.2.37.37,0,0,0,.1.3,11.21,11.21,0,0,1-.5,1.3,11.94,11.94,0,0,1-.8,1.6l-.3.7c-.1.4-.2.7-.3,1.1a4.1,4.1,0,0,0-.1,1.1v.4l-.2.6.2.7c0,.7.1,1.4.1,2.1a17,17,0,0,0,.4,2.2.31.31,0,0,1-.1.2.1.1,0,0,1-.1.1c0,.1,0,.1.1.2s.2.1.3.2l.4.9a.85.85,0,0,1,.3.5l.3.6.6.3a4.65,4.65,0,0,0,.9.3h.1a2.81,2.81,0,0,0,.8.1.37.37,0,0,0,.3-.1c.9,1.1,1,1,1,1m-53.8-2.5.4-.4c.6-.7,1.5-1.7,2.6-2.9,3.1-3.6,5-5.5,5.6-5.7l.6-.2.6-.4.7-.2.4.1.4.1a4.41,4.41,0,0,1,1.2,1.1,2,2,0,0,1,.3,1.1,1.48,1.48,0,0,1-.1.7c-.1.2-.1.5-.2.8l-.1,1c-.1.4-.2.8-.3,1.1l-.3.9-.4.6v.5c-.2.5-.5,1-.7,1.6s-.5,1.4-.9,2.5l-.3.2a.1.1,0,0,0,.1.1c0,.1.1.3.1.4a.86.86,0,0,1-.3.6,1.08,1.08,0,0,0-.3.7v.2l1.2-1.1a7.63,7.63,0,0,1,.8-1.1,11.41,11.41,0,0,1,1.1-1.1l.4-.2.2-.3.1-.3a1,1,0,0,1,.4-.5.78.78,0,0,1,.4-.4l.9-.5.4-.7A12.06,12.06,0,0,1,465,491a4.42,4.42,0,0,1,2.4-.7,2.27,2.27,0,0,1,1.3.3,1.78,1.78,0,0,1,.7.8l.6.6c.1.3.4.8.7,1.5s.6,1.2.7,1.5l-.2.7a2.6,2.6,0,0,1,.8,1.2c.3.6.6.9,1,.9a.37.37,0,0,0,.3-.1,4.33,4.33,0,0,1,.5-.1l.2-.1.2-.4.7-.5.5-.5a7.29,7.29,0,0,0,2.3-1.2,5.58,5.58,0,0,1,1.8-1c.2,0,.3,0,.4.1s.1.2.1.5a.77.77,0,0,1-.1.3c-.1.2-.1.5-.2.7l-.4.4c-.5.6-1.1,1.3-1.7,1.9l-2,2-.3.3-.5.3c-.1.4-.4.7-1,1-.1.1-.2.1-.2.2l-.4.4-1.2.5c-.2.1-.5.2-.7.3a.9.9,0,0,1-.5.1,3,3,0,0,1-2.1-1,7.34,7.34,0,0,1-1.7-2.6l-.1-.6a4.74,4.74,0,0,1-1-1,12.49,12.49,0,0,1-.9-1.2.37.37,0,0,0-.3-.1h-.3a1.6,1.6,0,0,0-.8.3A18.22,18.22,0,0,0,462,498l-.6.2-.5.7a2.34,2.34,0,0,1-.7.7,2,2,0,0,1-.8.4l-.8,1.2c-1.2,1.3-2,2.3-2.6,2.9a20.89,20.89,0,0,1-1.5,1.5,3.13,3.13,0,0,1-1.4,1.2,4.84,4.84,0,0,1-1.8.3,1.29,1.29,0,0,1-.8-.2c-.2-.1-.3-.3-.3-.7l.1-.8-.2-.3.1-.6q.9-2.85,1.2-4.2a8.13,8.13,0,0,0,.4-1.7.77.77,0,0,1,.1-.3c.1-.2.1-.4.2-.6l.3-.5a.35.35,0,0,0-.1-.2v-.2a6.2,6.2,0,0,1,.3-1.1,4.41,4.41,0,0,0,.3-1.4.35.35,0,0,0-.1-.2c-.1-.1-.2-.1-.4-.1a1.94,1.94,0,0,0-1.6.8c-.4.6-.7.9-.8.9l-.8,1-.6.6-.4.1-.2.2-.2.3-.2.3c-.2.1-.3.2-.4.2s-.1.1-.1.2l-.6.5c-1.4,1.1-2.5,1.9-3.4,2.5a3.59,3.59,0,0,1-1.6.8c-.2,0-.3,0-.4-.2a.6.6,0,0,1,0-.9c.1-.2.3-.3.6-.5v-.5a29.61,29.61,0,0,1,2.3-2.5,4.33,4.33,0,0,1,1.2-1,.31.31,0,0,0-.1-.2c0-.1,0-.1.1-.1h.1c.1,0,.2,0,.2-.1s.1-.3.2-.5l.4-.3Z" transform="translate(-181.85 -177.04)" style="fill:#231f20"/><path id="path14" d="M361.25,187.26a56.3,56.3,0,1,1-56.3,56.3,56.29,56.29,0,0,1,56.3-56.3" transform="translate(-181.85 -177.04)" style="fill:#9d9fa2"/><path id="path16" d="M367.25,241.56v-33.8h-33.8l10.9,10.4c-13.2,15.7-26.5,31.6-39.1,47.8-5.4,7-26.6,32.5-17.9,42.1,7.5,8.1,37.9-9.3,45.6-14.1-5.5,2.3-34.5,16.1-39.9,9.6-8.5-10.1,56.2-65.1,64-72.4Z" transform="translate(-181.85 -177.04)" style="fill:#ed1d24"/><path id="path18" d="M357.15,245.56v33.8h33.8l-11-10.3c13.2-15.7,26.4-31.6,39-47.8,5.4-7,26.6-32.5,17.9-42.1-7.5-8.1-37.9,9.3-45.6,14.1,5.5-2.3,34.5-16.1,39.9-9.6,8.4,10.1-56.3,65.1-64,72.4Z" transform="translate(-181.85 -177.04)" style="fill:#00598e"/><path id="path20" d="M459.15,350.66h18.2v78.5h34.4v13.3h-52.6Zm-72.4,0H406l18.6,44.6,9.1,26.7c-1.2-14.7-2-25.1-2.5-31.4s-.7-12.8-.7-19.4v-20.5h18.5v91.8h-19l-19.7-45-8.1-24.5c.7,8.9,1.3,17.5,1.9,25.9s.9,15.2.9,20.3v23.3h-18.2v-91.8Zm-29.5,28c0-10.8-3.7-16.2-11-16.2a11.09,11.09,0,0,0-7.1,2.4,8.2,8.2,0,0,0-3.2,6.4c.4,4.3,2.6,7.8,6.7,10.5q7.5,4.5,15.3,9.3a67.65,67.65,0,0,1,13.1,10.2,20.28,20.28,0,0,1,6,12c1.2,10.3-.8,17.9-6,23s-11.9,7.8-20.1,8.2c-10.4.3-18.7-1.5-24.8-5.6s-9.2-11.6-9.3-22.7a43.79,43.79,0,0,0,.5-6.2h18.4a8.66,8.66,0,0,1-.1,1.8,8.12,8.12,0,0,0-.1,1.7c-.1.7-.1,1.4-.2,2,0,10,4,15.2,11.9,15.5a29.12,29.12,0,0,0,5.4-1,6.81,6.81,0,0,0,3.9-3.5,12.39,12.39,0,0,0,1.7-6.3c0-5.2-3-9.7-8.9-13.5-4.4-2.6-8.6-5.2-12.7-7.8a101.24,101.24,0,0,1-10.2-7.4,29.11,29.11,0,0,1-6.8-8.6,21.46,21.46,0,0,1-2.4-11.7q1.2-21.3,26.1-22.5,31.2-1,31.2,27v2.9h-17.3Zm-78.4,22.6h-9.4v28h10c6.8,0,10.4-4.7,10.8-14.2q.15-13.8-11.4-13.8m-9.5-37V388h6.4c4.4,0,7.5-.9,9.5-2.6s2.9-5,2.9-9.9-1-8.1-2.7-9.3-4.9-1.9-9.6-1.9Zm-18.5-13.6h31.9c15.5,0,23.4,7.2,23.8,21.7.1,6.2-.9,10.9-3,14a17.69,17.69,0,0,1-9.3,7c9.6,1.3,14.6,8.5,14.8,21.6a36.64,36.64,0,0,1-2.5,13.7,21.59,21.59,0,0,1-8,10.1c-3.6,2.5-8.2,3.7-13.7,3.7h-34.1v-91.8Z" transform="translate(-181.85 -177.04)" style="fill:#00598e"/><path id="path22" d="M449.65,556.26c2.7-15.1,6.9-36.8,26.5-38.9l-1.3,9.7c-10.9-1.1-15.3,9.1-17.3,23.4,5.4-4.7,10.6-7.9,15.6-7.7l-.3,6.9c-9.8.8-17.8,6.1-19.5,15l-3.9,23.6-4.2,2.7,2.6-27-2-.1Z" transform="translate(-181.85 -177.04)" style="fill:#ed1d24"/><path id="path24" d="M495.15,529.66c-9.9,9.5-19.4,20.7-28.8,32.2a3.45,3.45,0,0,0,.7,3l4.6-4.9c1.5,4.6,3.3,5.4,5.2,2.3l12.1-13c.8,6.6,3.8,6.8,8.5,1.7l13-14.2c1.8,3.4-.6,7-5.2,10.6.1,5.2,0,8.9,1.2,9.3l19.9-20.4-1.9,10.6c0,1.9,3.3,1.6,6.1,0l10-9.3c3.4,8.2,12.5,1.7,25.3-10.8,3.3-.8,5.1-.1,3.8,3.8l-2.6,5.1c.2,1.9,2.3,2.1,6.2.7l12.9-8.3-.7-1.1-10.5,4.6c2.1-5.5,1.9-8.8-1.4-10-5.1-1.5-6.6-1.1-11.2,3.4l-10.6,9.9c-5.2,1.7-6.8.1-3.4-4.1,3.2-1.3,6.4-3.1,7.6-5.5,2.4-3.5-.2-7.2-4.8-4.9a33.08,33.08,0,0,0-10.3,12.4l-7.9,8.1-1.6-1.4,7.4-18.8,3-.7,1-9.4c-2.7-.8-5.2,1.6-7.7,6.2l-12.7,1.3-1,5.2,10.3-.9a101.86,101.86,0,0,1-15.9,20.5c.9-5.3,4.2-15.6,3-16.1h-3.4l-16.5,18.7c-2.1,2.4-3.3,2.3-3.6-.2l.7-4.8c-.5-1.5-1.5-1.1-3.4.5l-7.3,8.3a1,1,0,0,1-1.2-.9l14.2-16.9c1-2-.6-3.3-3.1-1.8" transform="translate(-181.85 -177.04)" style="fill:#ed1d24"/></svg>