<svg width="381" height="71" viewBox="0 0 381 71" fill="none" xmlns="http://www.w3.org/2000/svg">
<path d="M1 29.8673C1 29.8673 37.6367 15.2363 68.5446 15.4392C102.048 15.6591 104.641 30.8034 137.34 33.365C197.127 38.0487 205.485 -3.74858 264.924 1.4483C291.869 3.8041 295.944 15.6371 323.713 15.4392C350.68 15.247 380 1.4483 380 1.4483" stroke="#00D0FF"/>
<path d="M68.5445 16.5126C37.6367 16.2947 1 32.0133 1 32.0133V71H380V1.48162C380 1.48162 350.68 16.3061 323.713 16.5126C295.944 16.7252 291.869 4.01256 264.924 1.48162C205.485 -4.10161 197.127 40.803 137.34 35.7711C104.641 33.0191 102.048 16.7488 68.5445 16.5126Z" fill="url(#paint0_linear_0_275)"/>
<defs>
<linearGradient id="paint0_linear_0_275" x1="190.5" y1="1.48163" x2="190.5" y2="71" gradientUnits="userSpaceOnUse">
<stop stop-color="white" stop-opacity="0.2"/>
<stop offset="1" stop-color="white" stop-opacity="0"/>
</linearGradient>
</defs>
</svg>
