<svg width="59" height="59" viewBox="0 0 59 59" fill="none" xmlns="http://www.w3.org/2000/svg">
<circle cx="29.5" cy="29.5" r="29" stroke="white" stroke-opacity="0.69"/>
<mask id="mask0_82_31" style="mask-type:alpha" maskUnits="userSpaceOnUse" x="17" y="16" width="26" height="26">
<rect x="17" y="16" width="25.59" height="25.59" fill="#00D0FF"/>
</mask>
<g mask="url(#mask0_82_31)">
<path d="M27.7747 41.59C24.1607 38.9341 21.4614 36.4672 19.6768 34.1893C17.8923 31.9114 17 29.8031 17 27.8645C17 24.9565 18.0831 22.6398 20.2493 20.9144C22.4154 19.1891 24.9239 18.3264 27.7747 18.3264H28.4482C28.6726 18.3264 28.8971 18.3457 29.1216 18.3845V20.74C28.8971 20.7012 28.6782 20.677 28.465 20.6673C28.2517 20.6576 28.0217 20.6527 27.7747 20.6527C25.5076 20.6527 23.5939 21.3264 22.0338 22.6738C20.4737 24.0211 19.6937 25.7513 19.6937 27.8645C19.6937 29.2409 20.3559 30.816 21.6803 32.5899C23.0047 34.3637 25.0362 36.3363 27.7747 38.5076C30.5133 36.3363 32.5448 34.3637 33.8692 32.5899C35.1936 30.816 35.8558 29.2409 35.8558 27.8645V27.6318H38.5495V27.8645C38.5495 29.8031 37.6572 31.9114 35.8726 34.1893C34.0881 36.4672 31.3888 38.9341 27.7747 41.59ZM27.7747 29.9582C28.5155 29.9582 29.1496 29.7304 29.6772 29.2748C30.2047 28.8192 30.4684 28.2716 30.4684 27.6318C30.4684 26.9921 30.2047 26.4444 29.6772 25.9888C29.1496 25.5332 28.5155 25.3055 27.7747 25.3055C27.034 25.3055 26.3998 25.5332 25.8723 25.9888C25.3448 26.4444 25.0811 26.9921 25.0811 27.6318C25.0811 28.2716 25.3448 28.8192 25.8723 29.2748C26.3998 29.7304 27.034 29.9582 27.7747 29.9582ZM35.8558 25.3055H38.5495V21.8159H42.59V19.4895H38.5495V16H35.8558V19.4895H31.8153V21.8159H35.8558V25.3055Z" fill="#00D0FF"/>
</g>
</svg>
