<svg id="Layer_1" data-name="Layer 1" xmlns="http://www.w3.org/2000/svg" viewBox="0 0 232 232"><title>Jio logo - Brandlogos.net</title><path d="M384,268h0A116,116,0,0,1,500,384h0A116,116,0,0,1,384,500h0A116,116,0,0,1,268,384h0A116,116,0,0,1,384,268Z" transform="translate(-268 -268)" style="fill:#0a2885"/><path d="M438,408.74c-8.54,0-14.4-6.26-14.4-15.22s6-15.08,14.4-15.08,14.41,6.26,14.41,15.21c0,8.67-6.13,15.08-14.4,15.08Zm.29-49.8c-21.9,0-36.46,13.89-36.46,34.57,0,21.22,14,34.84,36,34.84s36.3-13.62,36.3-34.7c0-20.81-14.26-34.7-35.89-34.7Zm-56.42-30.3c-8.27,0-13.48,4.67-13.48,12s5.34,12.15,13.87,12.15c8.28,0,13.49-4.67,13.49-12.15S390.41,328.63,381.87,328.63Zm1.47,31h-2.68c-6.53,0-11.47,3.06-11.47,12.42v42.73c0,9.47,4.79,12.41,11.75,12.41h2.66c6.54,0,11.21-3.19,11.21-12.42V372C394.82,362.4,390.27,359.6,383.34,359.6Zm-35-20.15h-3.87c-7.35,0-11.35,4.16-11.35,12.42V391.8c0,10.28-3.48,13.88-11.6,13.88-6.4,0-11.61-2.8-15.76-7.89-.41-.52-8.82,3.47-8.82,13.37,0,10.67,10,17.22,28.56,17.22,22.56,0,34.44-11.34,34.44-36.17V351.86C360,343.58,356,339.46,348.39,339.46Z" transform="translate(-268 -268)" style="fill:#fff"/></svg>