<svg width="38" height="38" viewBox="0 0 38 38" fill="none" xmlns="http://www.w3.org/2000/svg">
<mask id="mask0_0_262" style="mask-type:alpha" maskUnits="userSpaceOnUse" x="0" y="0" width="38" height="38">
<rect width="37.0787" height="37.0787" fill="#D9D9D9"/>
</mask>
<g mask="url(#mask0_0_262)">
<path d="M6.17981 29.354V26.2641H9.2697V15.4495C9.2697 13.3123 9.91343 11.4133 11.2009 9.75248C12.4883 8.09166 14.162 7.00376 16.222 6.48878V5.40732C16.222 4.76359 16.4473 4.21642 16.8979 3.76581C17.3485 3.3152 17.8957 3.0899 18.5394 3.0899C19.1831 3.0899 19.7303 3.3152 20.1809 3.76581C20.6315 4.21642 20.8568 4.76359 20.8568 5.40732V6.48878C22.9167 7.00376 24.5904 8.09166 25.8779 9.75248C27.1653 11.4133 27.8091 13.3123 27.8091 15.4495V26.2641H30.899V29.354H6.17981ZM18.5394 33.9888C17.6897 33.9888 16.9623 33.6863 16.3572 33.0812C15.752 32.4761 15.4495 31.7487 15.4495 30.8989H21.6293C21.6293 31.7487 21.3267 32.4761 20.7216 33.0812C20.1165 33.6863 19.3891 33.9888 18.5394 33.9888ZM12.3596 26.2641H24.7192V15.4495C24.7192 13.75 24.1141 12.2952 22.9039 11.085C21.6937 9.87479 20.2388 9.26968 18.5394 9.26968C16.8399 9.26968 15.3851 9.87479 14.1749 11.085C12.9647 12.2952 12.3596 13.75 12.3596 15.4495V26.2641Z" fill="white" fill-opacity="0.56"/>
</g>
</svg>
